HIERARCHY
ROOT Hips
{
  OFFSET 0.0502701 92.146 0
  CHANNELS 6 Xposition Yposition Zposition Zrotation Xrotation Yrotation
  JOINT Bip01_Pelvis
  {
    OFFSET 0 0 0
    CHANNELS 6 Xposition Yposition Zposition Zrotation Xrotation Yrotation
    JOINT BN_Tai_01
    {
      OFFSET -4.6544 -2.06234 0
      CHANNELS 6 Xposition Yposition Zposition Zrotation Xrotation Yrotation
      JOINT BN_Tai_R_01
      {
        OFFSET 10.2279 -0.119812 3.68897
        CHANNELS 6 Xposition Yposition Zposition Zrotation Xrotation Yrotation
        JOINT BN_Tai_R_02
        {
          OFFSET 15.0421 0 1.52588e-005
          CHANNELS 6 Xposition Yposition Zposition Zrotation Xrotation Yrotation
          End Site
          {
            OFFSET 0 0 0
          }
        }
      }
      JOINT BN_Tai_L_01
      {
        OFFSET 10.2279 -0.119797 -3.68907
        CHANNELS 6 Xposition Yposition Zposition Zrotation Xrotation Yrotation
        JOINT BN_Tai_L_02
        {
          OFFSET 15.0421 0 0
          CHANNELS 6 Xposition Yposition Zposition Zrotation Xrotation Yrotation
          End Site
          {
            OFFSET 0 0 0
          }
        }
      }
    }
    JOINT Bip01_Spine
    {
      OFFSET 2.7319 1.49192 0
      CHANNELS 6 Xposition Yposition Zposition Zrotation Xrotation Yrotation
      JOINT Bip01_R_Thigh
      {
        OFFSET -2.85206 -1.24717 -6.20578
        CHANNELS 6 Xposition Yposition Zposition Zrotation Xrotation Yrotation
        JOINT Bip01_R_Calf
        {
          OFFSET 6.73247 0 0
          CHANNELS 6 Xposition Yposition Zposition Zrotation Xrotation Yrotation
          JOINT Bip01_R_HorseLink
          {
            OFFSET 8.08523 0 0
            CHANNELS 6 Xposition Yposition Zposition Zrotation Xrotation Yrotation
            JOINT Bip01_R_Foot
            {
              OFFSET 8.97518 0 0
              CHANNELS 6 Xposition Yposition Zposition Zrotation Xrotation Yrotation
              JOINT BN_Toe_R_30
              {
                OFFSET 1.58762 -0.234982 -0.295153
                CHANNELS 6 Xposition Yposition Zposition Zrotation Xrotation Yrotation
                JOINT BN_Toe_R_31
                {
                  OFFSET 3.03849 0 0
                  CHANNELS 6 Xposition Yposition Zposition Zrotation Xrotation Yrotation
                  End Site
                  {
                    OFFSET 0 0 0
                  }
                }
              }
              JOINT BN_Toe_R_00
              {
                OFFSET 1.65463 0.933666 1.02414
                CHANNELS 6 Xposition Yposition Zposition Zrotation Xrotation Yrotation
                JOINT BN_Toe_R_01
                {
                  OFFSET 3.51775 0 0
                  CHANNELS 6 Xposition Yposition Zposition Zrotation Xrotation Yrotation
                  End Site
                  {
                    OFFSET 0 0 0
                  }
                }
              }
              JOINT BN_Toe_R_20
              {
                OFFSET 1.47309 1.0106 -1.16708
                CHANNELS 6 Xposition Yposition Zposition Zrotation Xrotation Yrotation
                JOINT BN_Toe_R_21
                {
                  OFFSET 3.94896 0 0
                  CHANNELS 6 Xposition Yposition Zposition Zrotation Xrotation Yrotation
                  End Site
                  {
                    OFFSET 0 0 0
                  }
                }
              }
              JOINT BN_Toe_R_10
              {
                OFFSET 1.07522 1.64225 0.0223596
                CHANNELS 6 Xposition Yposition Zposition Zrotation Xrotation Yrotation
                JOINT BN_Toe_R_11
                {
                  OFFSET 4.09655 0 0
                  CHANNELS 6 Xposition Yposition Zposition Zrotation Xrotation Yrotation
                  End Site
                  {
                    OFFSET 0 0 0
                  }
                }
              }
              JOINT Bip01_R_Toe0
              {
                OFFSET 2.04238 1.88275 0
                CHANNELS 6 Xposition Yposition Zposition Zrotation Xrotation Yrotation
                End Site
                {
                  OFFSET 0 0 0
                }
              }
            }
          }
        }
      }
      JOINT Bip01_L_Thigh
      {
        OFFSET -2.85154 -1.24849 6.20577
        CHANNELS 6 Xposition Yposition Zposition Zrotation Xrotation Yrotation
        JOINT Bip01_L_Calf
        {
          OFFSET 6.73247 0 0
          CHANNELS 6 Xposition Yposition Zposition Zrotation Xrotation Yrotation
          JOINT Bip01_L_HorseLink
          {
            OFFSET 8.08524 0 0
            CHANNELS 6 Xposition Yposition Zposition Zrotation Xrotation Yrotation
            JOINT Bip01_L_Foot
            {
              OFFSET 8.97521 0 0
              CHANNELS 6 Xposition Yposition Zposition Zrotation Xrotation Yrotation
              JOINT BN_Toe_L_00
              {
                OFFSET 1.65461 0.933701 -1.02419
                CHANNELS 6 Xposition Yposition Zposition Zrotation Xrotation Yrotation
                JOINT BN_Toe_L_01
                {
                  OFFSET 3.51778 0 0
                  CHANNELS 6 Xposition Yposition Zposition Zrotation Xrotation Yrotation
                  End Site
                  {
                    OFFSET 0 0 0
                  }
                }
              }
              JOINT BN_Toe_L_10
              {
                OFFSET 1.07523 1.6422 -0.0221281
                CHANNELS 6 Xposition Yposition Zposition Zrotation Xrotation Yrotation
                JOINT BN_Toe_L_11
                {
                  OFFSET 4.09657 0 0
                  CHANNELS 6 Xposition Yposition Zposition Zrotation Xrotation Yrotation
                  End Site
                  {
                    OFFSET 0 0 0
                  }
                }
              }
              JOINT BN_Toe_L_30
              {
                OFFSET 1.58761 -0.234954 0.295135
                CHANNELS 6 Xposition Yposition Zposition Zrotation Xrotation Yrotation
                JOINT BN_Toe_L_31
                {
                  OFFSET 3.03847 0 0
                  CHANNELS 6 Xposition Yposition Zposition Zrotation Xrotation Yrotation
                  End Site
                  {
                    OFFSET 0 0 0
                  }
                }
              }
              JOINT BN_Toe_L_20
              {
                OFFSET 1.4731 1.01055 1.1673
                CHANNELS 6 Xposition Yposition Zposition Zrotation Xrotation Yrotation
                JOINT BN_Toe_L_21
                {
                  OFFSET 3.94897 0 0
                  CHANNELS 6 Xposition Yposition Zposition Zrotation Xrotation Yrotation
                  End Site
                  {
                    OFFSET 0 0 0
                  }
                }
              }
              JOINT Bip01_L_Toe0
              {
                OFFSET 2.04238 1.88276 0
                CHANNELS 6 Xposition Yposition Zposition Zrotation Xrotation Yrotation
                End Site
                {
                  OFFSET 0 0 0
                }
              }
            }
          }
        }
      }
      JOINT Bip01_Spine1
      {
        OFFSET 8.6167 -0.00679016 0
        CHANNELS 6 Xposition Yposition Zposition Zrotation Xrotation Yrotation
        JOINT BN_Wing_R_01
        {
          OFFSET 0.267445 -6.12421 -7.49305
          CHANNELS 6 Xposition Yposition Zposition Zrotation Xrotation Yrotation
          JOINT BN_Wing_R_02
          {
            OFFSET 14.7158 0 0
            CHANNELS 6 Xposition Yposition Zposition Zrotation Xrotation Yrotation
            JOINT BN_Wing_R_03
            {
              OFFSET 19.0858 0 0
              CHANNELS 6 Xposition Yposition Zposition Zrotation Xrotation Yrotation
              JOINT BN_Wing_R_05
              {
                OFFSET 2.68908 -0.270637 0.785261
                CHANNELS 6 Xposition Yposition Zposition Zrotation Xrotation Yrotation
                JOINT BN_Wing_R_06
                {
                  OFFSET 21.1083 0 0
                  CHANNELS 6 Xposition Yposition Zposition Zrotation Xrotation Yrotation
                  End Site
                  {
                    OFFSET 0 0 0
                  }
                }
              }
              JOINT BN_Wing_R_04
              {
                OFFSET 27.642 0 0
                CHANNELS 6 Xposition Yposition Zposition Zrotation Xrotation Yrotation
                End Site
                {
                  OFFSET 0 0 0
                }
              }
            }
          }
        }
        JOINT BN_Wing_L_01
        {
          OFFSET 0.267452 -6.12421 7.49305
          CHANNELS 6 Xposition Yposition Zposition Zrotation Xrotation Yrotation
          JOINT BN_Wing_L_02
          {
            OFFSET 14.7158 0 0
            CHANNELS 6 Xposition Yposition Zposition Zrotation Xrotation Yrotation
            JOINT BN_Wing_L_03
            {
              OFFSET 19.0858 0 0
              CHANNELS 6 Xposition Yposition Zposition Zrotation Xrotation Yrotation
              JOINT BN_Wing_L_05
              {
                OFFSET 2.68908 -0.270635 -0.785254
                CHANNELS 6 Xposition Yposition Zposition Zrotation Xrotation Yrotation
                JOINT BN_Wing_L_06
                {
                  OFFSET 21.1083 0 0
                  CHANNELS 6 Xposition Yposition Zposition Zrotation Xrotation Yrotation
                  End Site
                  {
                    OFFSET 0 0 0
                  }
                }
              }
              JOINT BN_Wing_L_04
              {
                OFFSET 27.642 0 1.14441e-005
                CHANNELS 6 Xposition Yposition Zposition Zrotation Xrotation Yrotation
                End Site
                {
                  OFFSET 0 0 0
                }
              }
            }
          }
        }
        JOINT Bip01_Neck
        {
          OFFSET 7.59958 -1.43237 0
          CHANNELS 6 Xposition Yposition Zposition Zrotation Xrotation Yrotation
          JOINT Bip01_Neck1
          {
            OFFSET 3.64749 -0.00262451 0
            CHANNELS 6 Xposition Yposition Zposition Zrotation Xrotation Yrotation
            JOINT Bip01_Neck2
            {
              OFFSET 3.32331 -0.00284576 0
              CHANNELS 6 Xposition Yposition Zposition Zrotation Xrotation Yrotation
              JOINT Bip01_Head
              {
                OFFSET 4.63256 -0.573471 0
                CHANNELS 6 Xposition Yposition Zposition Zrotation Xrotation Yrotation
                JOINT BN_Jaw
                {
                  OFFSET 1.05386 2.23561 0
                  CHANNELS 6 Xposition Yposition Zposition Zrotation Xrotation Yrotation
                  End Site
                  {
                    OFFSET 0 0 0
                  }
                }
              }
            }
          }
        }
      }
    }
  }
}
MOTION
Frames:	4
Frame Time:	0.0333333
-0.133723 94.2184 0 135.356 -90 178.179 0 0 0 -89.9947 9.57719 -89.9947 -4.65442 -2.06234 9.31323e-010 -8.12547 1.9485 179.532 10.228 -0.119785 3.68891 28.6031 80.8654 -27.8415 15.0421 8.88179e-016 -3.8147e-006 5.14665 -4.542 9.38255 10.2278 -0.119766 -3.68914 -138.507 78.4916 143.9 15.0421 -4.76837e-007 0 -5.15014 4.54172 9.38269 3.0498 0.628586 -0.000487679 -8.20786 -1.26674e-010 5.4305e-012 -2.92877 -1.05769 -6.20578 -165.789 -21.4358 176.292 6.73248 3.8147e-006 -1.90735e-006 -117.413 -5.26147e-006 8.83228e-006 8.08524 3.8147e-006 0 116.106 9.1258e-007 1.28835e-006 8.97521 -7.10543e-015 1.90735e-006 -74.8203 -0.0604704 -24.4816 1.58763 -0.235001 -0.295148 146.154 0.761155 166.358 3.03848 -7.6294e-006 -3.8147e-006 -45.9883 -4.71773e-006 9.2761e-006 1.65462 0.933655 1.02414 71.7281 27.4578 -45.3025 3.51775 0 0 31.7752 1.20721e-005 -1.01116e-005 1.4731 1.0106 -1.16707 66.6448 -8.00172 30.8802 3.94897 7.6294e-006 -7.62939e-006 32.8748 1.31051e-007 2.57587e-006 1.07521 1.64222 0.0223646 54.8099 -6.18649 -1.0778 4.09657 7.6294e-006 1.19209e-007 56.2688 6.49056e-006 -9.13732e-006 2.04238 1.88273 4.76837e-007 87.4729 -2.52844 27.7808 -2.92879 -1.05772 6.20577 -119.527 11.0637 171.293 6.73249 -1.42109e-014 9.53674e-007 -83.9793 -9.16753e-006 -6.61128e-008 8.08524 -3.8147e-006 -1.90735e-006 113.362 5.45638e-006 -1.30471e-005 8.9752 -7.62939e-006 -2.86102e-006 -48.9876 4.93519 9.52306 1.65462 0.933692 -1.02419 66.714 -31.6813 42.8255 3.51775 -3.81469e-006 -7.62939e-006 47.7875 1.02741e-005 1.3949e-005 1.07522 1.64219 -0.022126 66.4582 -3.31651 6.53567 4.09656 -3.81469e-006 -9.53674e-007 50.5759 -1.83518e-006 2.40709e-006 1.58764 -0.23497 0.295135 135.264 5.7028 -177.038 3.0385 7.10542e-015 9.53674e-007 -38.7373 6.95003e-006 6.05086e-006 1.47311 1.01056 1.1673 66.8811 5.45928 -10.7952 3.94897 -7.10542e-015 1.90735e-006 48.5268 1.21014e-006 -8.16684e-007 2.04238 1.88275 1.19209e-007 120.306 0.489716 -30.702 8.61719 -0.00685501 2.54065e-006 -4.08905 9.6565e-011 -2.11528e-010 0.267448 -6.12425 -7.49305 -69.5951 -2.51832 27.042 14.7158 -2.84217e-014 7.10543e-015 51.381 5.15706 -4.82037 19.0859 -9.53674e-007 -3.8147e-006 -36.6053 -2.24683 23.928 2.68909 -0.270645 0.785278 -43.8612 2.4697 4.79228 21.1082 0 3.8147e-006 -1.32056 -2.34539 36.8282 27.642 1.52588e-005 -1.42109e-014 -2.63525 -0.0479272 40.8152 0.267464 -6.12426 7.49305 -69.5951 2.51833 -27.042 14.7158 0 0 51.381 -5.15707 4.82037 19.0859 0 -3.55271e-015 -36.6053 2.24683 -23.928 2.68911 -0.270653 -0.785278 -43.8612 -2.46969 -4.79227 21.1083 -2.28882e-005 -7.62939e-006 -1.3205 2.34544 -36.8282 27.642 -7.62939e-006 1.52588e-005 -2.63552 0.0476261 -40.8152 7.59942 -1.43241 -1.77799e-005 3.77414 7.60972e-017 2.30544e-015 3.64919 -0.00226212 0 31.3246 1.08367e-010 1.78063e-010 3.32334 -0.00289917 3.46945e-018 -4.46352 2.12833e-010 -1.24996e-010 4.63256 -0.573471 -9.31323e-010 -7.21592 1.16475e-017 -1.63066e-016 1.05391 2.23562 -9.31323e-010 -79.0055 -0.0283661 -179.966 
0.128634 93.3444 0.0658137 159.887 -89.9964 -157.843 0 0 0 -89.9569 9.57829 -89.6085 -4.65442 -2.06234 9.31322e-010 -8.42494 1.95044 179.559 10.228 -0.119785 3.68891 28.9495 81.0397 -29.8582 15.0421 1.77636e-015 -3.8147e-006 5.09579 -4.60649 7.9234 10.2278 -0.119766 -3.68914 -138.262 78.5955 142 15.0421 -4.76837e-007 7.10543e-015 -5.16674 4.59438 7.92588 3.04954 0.628586 0.0222989 -8.33883 0.00810232 -0.548681 -2.98567 -1.0651 -6.20003 -159.561 -20.2321 177.339 6.73248 3.8147e-006 -1.90735e-006 -112.166 -1.33135e-005 5.65806e-006 8.08524 3.8147e-006 0 108.597 9.79719e-006 -1.65218e-006 8.97521 -7.10543e-015 1.90735e-006 -72.7035 1.44133 -22.7429 1.58763 -0.235001 -0.295148 145.879 0.841838 166.371 3.03848 -7.6294e-006 -3.8147e-006 -44.9598 0.00130827 -0.00130517 1.65462 0.933655 1.02414 72.2548 27.1091 -45.1133 3.51775 1.42109e-014 -1.42109e-014 31.6706 1.23482e-005 -9.22917e-006 1.4731 1.0106 -1.16707 66.9446 -7.38562 30.818 3.94897 7.6294e-006 -7.62939e-006 32.7599 -0.0541748 0.100585 1.07521 1.64222 0.0223646 55.8398 -6.20564 -0.967246 4.09657 7.6294e-006 1.19209e-007 55.9731 7.16033e-006 -8.56904e-006 2.04238 1.88273 4.76599e-007 87.4659 -2.5779 27.6235 -2.86443 -1.06317 6.21176 -122.134 11.1014 172.146 6.73249 2.84217e-014 9.53674e-007 -88.7455 -1.04542e-007 -1.02527e-006 8.08524 -3.8147e-006 -1.90735e-006 111.131 5.96031e-006 -1.28247e-005 8.9752 -7.62939e-006 -2.86102e-006 -47.0284 3.97486 9.76847 1.65462 0.933692 -1.02419 66.5833 -31.8161 42.9008 3.51775 -3.81469e-006 -7.62939e-006 47.3057 0.001274 0.161371 1.07522 1.64219 -0.022126 66.7415 -3.22862 6.51782 4.09656 -3.81469e-006 -9.53674e-007 51.2676 5.94392e-006 8.73968e-006 1.58764 -0.23497 0.295135 135.343 5.71212 -177.032 3.0385 -7.10542e-015 9.53674e-007 -38.7373 -7.42531e-005 0.000107308 1.47311 1.01056 1.1673 68.3415 5.46253 -10.827 3.94897 0 1.90735e-006 49.5322 8.78101e-006 5.73011e-006 2.04238 1.88275 1.19135e-007 120.544 0.652222 -30.5268 8.61719 -0.00685501 2.54065e-006 -3.73998 -0.258986 0.24252 0.267448 -6.12425 -7.49305 -67.8379 -3.90824 26.0784 14.7158 -1.42109e-014 0 48.5041 5.01659 -4.7839 19.0859 -9.53674e-007 -3.8147e-006 -37.0064 -2.38997 15.8566 2.68909 -0.270645 0.785278 -45.8373 2.12711 5.23653 21.1082 1.42108e-014 3.8147e-006 -1.33536 -2.46668 31.0611 27.642 1.52588e-005 -7.10543e-014 -2.62957 -0.0542882 33.0532 0.267464 -6.12426 7.49305 -67.6598 4.05493 -26.1201 14.7158 -4.26326e-014 1.77636e-014 48.5472 -5.01478 4.78573 19.0859 -8.88178e-016 1.06581e-014 -37.0064 2.38997 -15.8566 2.68911 -0.270653 -0.785278 -45.8373 -2.12711 -5.23651 21.1083 -2.28882e-005 -7.62939e-006 -1.33533 2.46672 -31.0611 27.642 -7.62939e-006 1.52588e-005 -2.6251 0.0566253 -33.0531 7.59942 -1.43241 -1.77799e-005 1.1885 0.106245 0.00983274 3.64919 -0.00226212 0 29.9216 0.0045449 -0.0232513 3.32334 -0.00289917 0 -3.66124 -0.123082 0.0914209 4.63256 -0.573471 -9.31329e-010 -3.72407 0.0933688 0.186545 1.05391 2.23562 -9.31248e-010 -79.6225 -0.000167848 -179.971 
0.556872 92.2949 0.139662 -174.375 -89.9843 -132.635 0 0 0 -89.918 9.58128 -89.1903 -4.65442 -2.06234 9.31321e-010 -9.1954 1.95493 179.63 10.228 -0.119785 3.68891 29.0956 81.233 -31.8438 15.0421 -1.33227e-015 -3.8147e-006 4.96898 -4.74922 4.16238 10.2278 -0.119766 -3.68914 -138.07 78.6578 140.003 15.0421 -4.76837e-007 -1.42109e-014 -5.18865 4.70975 4.16999 3.04927 0.628586 0.0446456 -8.45706 0.0170238 -1.13141 -3.0466 -1.07212 -6.19149 -153.18 -18.9014 178.231 6.73248 3.8147e-006 -1.90735e-006 -106.806 -4.05317e-006 9.4966e-006 8.08524 3.8147e-006 0 100.737 9.93108e-006 -2.96963e-007 8.97521 2.84217e-014 1.90735e-006 -70.4443 2.75303 -20.7813 1.58763 -0.235001 -0.295148 145.378 0.865654 166.367 3.03848 -7.6294e-006 -3.8147e-006 -43.9513 0.00255559 -0.00264576 1.65462 0.933655 1.02414 72.7711 26.7685 -44.9251 3.51775 6.39488e-014 -1.42109e-014 31.5681 1.17718e-005 -9.76781e-006 1.4731 1.0106 -1.16707 67.4454 -6.90002 30.7447 3.94897 7.6294e-006 -7.62939e-006 32.6474 -0.107492 0.19911 1.07521 1.64222 0.0223646 57.0236 -6.22006 -0.836424 4.09657 7.6294e-006 1.19209e-007 55.6831 7.1325e-006 -8.45339e-006 2.04238 1.88273 4.76443e-007 87.4588 -2.62635 27.4693 -2.80133 -1.06852 6.21764 -124.165 10.9514 173.122 6.73249 4.26326e-014 9.53674e-007 -92.0725 9.44445e-007 -9.93807e-007 8.08524 -3.8147e-006 -1.90735e-006 107.566 -2.80468e-006 -9.40585e-006 8.9752 -7.62939e-006 -2.86102e-006 -46.9914 2.61471 9.91793 1.65462 0.933692 -1.02419 66.2359 -32.1685 43.0971 3.51775 -3.81469e-006 -7.62939e-006 46.8332 0.00121914 0.319609 1.07522 1.64219 -0.022126 66.9544 -3.15681 6.51961 4.09656 -3.81469e-006 -9.53674e-007 51.9459 -1.41755e-006 2.91844e-006 1.58764 -0.23497 0.295135 135.787 5.74051 -177.085 3.0385 1.42108e-014 9.53674e-007 -38.7373 -0.000153611 0.000206259 1.47311 1.01056 1.1673 70.1352 5.46826 -10.9029 3.94897 1.42108e-014 1.90735e-006 50.5181 8.84181e-006 5.64548e-006 2.04238 1.88275 1.19046e-007 120.777 0.812274 -30.3555 8.61719 -0.00685501 2.54065e-006 -3.52349 -0.532931 0.490944 0.267448 -6.12425 -7.49305 -67.1584 -4.6765 25.3139 14.7158 0 1.77636e-014 46.9069 4.90102 -4.68738 19.0859 -9.53674e-007 -3.8147e-006 -37.7092 -2.54496 5.22881 2.68909 -0.270645 0.785278 -48.1997 1.76242 6.26182 21.1082 0 3.8147e-006 -1.38378 -2.6339 17.748 27.642 1.52588e-005 -3.12639e-013 -2.60974 -0.0715959 18.2302 0.267464 -6.12426 7.49305 -66.9576 4.84163 -25.3612 14.7158 0 3.55271e-015 47.0287 -4.89422 4.68796 19.0859 -1.06581e-014 -1.06581e-014 -37.7092 2.54495 -5.22881 2.68911 -0.270653 -0.785278 -48.1997 -1.76241 -6.26181 21.1083 -2.28882e-005 -7.62939e-006 -1.38377 2.63391 -17.748 27.642 -7.62939e-006 1.52588e-005 -2.59137 0.0757288 -18.23 7.59942 -1.43241 -1.77799e-005 -1.69281 0.230013 0.0558615 3.64919 -0.00226212 5.55112e-017 28.4794 -0.0128974 -0.0508356 3.32334 -0.00289917 1.38778e-017 -2.87075 -0.24588 0.177537 4.63256 -0.573471 -9.31386e-010 0.286054 0.242169 0.345617 1.05391 2.23562 -9.30693e-010 -81.2462 -0.00294495 -179.971 
1.08899 91.1227 0.21967 -176.664 -89.9655 -135.449 0 0 0 -89.8703 9.57977 -88.7212 -4.65442 -2.06234 9.31323e-010 -10.3135 1.96162 179.726 10.228 -0.119785 3.68891 29.1595 81.4213 -33.8824 15.0421 -4.44089e-016 -3.8147e-006 4.77243 -4.91823 -1.31196 10.2278 -0.119766 -3.68914 -137.976 78.6823 137.973 15.0421 -4.76837e-007 0 -5.20495 4.83905 -1.29364 3.04901 0.628586 0.0672109 -8.56608 0.0297209 -1.75483 -3.11228 -1.07921 -6.18022 -146.61 -17.4368 178.969 6.73248 3.8147e-006 -1.90735e-006 -101.271 -1.20041e-005 8.07243e-006 8.08524 3.8147e-006 0 92.5167 9.8715e-006 1.1261e-006 8.97521 -2.84217e-014 1.90735e-006 -68.1093 3.85003 -18.5959 1.58763 -0.235001 -0.295148 144.712 1.07642 166.384 3.03848 -7.6294e-006 -3.8147e-006 -42.9328 0.00377364 -0.00405092 1.65462 0.933655 1.02414 73.2921 26.4262 -44.7319 3.51775 7.10543e-014 1.42109e-014 31.4645 1.64643e-005 -1.75859e-006 1.4731 1.0106 -1.16707 68.1171 -6.50346 30.7014 3.94897 7.6294e-006 -7.62939e-006 32.5338 -0.161534 0.298506 1.07521 1.64222 0.0223646 58.3502 -6.23289 -0.689565 4.09657 7.6294e-006 1.19209e-007 55.3902 6.42346e-006 -8.79678e-006 2.04238 1.88273 4.76349e-007 87.4516 -2.67529 27.3135 -2.73172 -1.07274 6.22549 -125.675 10.6279 174.179 6.73249 4.26326e-014 9.53674e-007 -94.1628 -9.01141e-006 -1.68591e-006 8.08524 -3.8147e-006 -1.90735e-006 102.85 -1.80497e-006 -9.65407e-006 8.9752 -7.62939e-006 -2.86102e-006 -48.5262 0.99806 9.87434 1.65462 0.933692 -1.02419 65.7138 -32.7082 43.3971 3.51775 -3.81469e-006 -7.62939e-006 45.5899 -0.0160656 0.683936 1.07522 1.64219 -0.022126 67.1693 -3.0843 6.52112 4.09656 -3.81469e-006 -9.53674e-007 52.6308 -1.92927e-006 2.60252e-006 1.58764 -0.23497 0.295135 136.415 5.7301 -177.161 3.0385 1.42108e-014 9.53674e-007 -38.7373 -0.000235341 0.000308152 1.47311 1.01056 1.1673 72.1884 5.47623 -11.0176 3.94897 -7.10542e-015 1.90735e-006 51.5138 1.05695e-006 -6.76263e-007 2.04238 1.88275 1.18941e-007 121.438 1.27454 -29.8701 8.61719 -0.00685501 2.54065e-006 -3.37355 -0.81639 0.752691 0.267448 -6.12425 -7.49305 -67.1423 -5.05703 25.8247 14.7158 0 1.42109e-014 46.1036 4.79664 -4.54496 19.0859 -9.53674e-007 -3.8147e-006 -38.7028 -2.68448 -6.43208 2.68909 -0.270645 0.785278 -50.5064 1.423 7.49656 21.1082 -2.84217e-014 3.8147e-006 -1.43403 -2.62037 1.69894 27.642 1.52588e-005 -6.03961e-013 -2.56291 -0.0877287 1.10694 0.267464 -6.12426 7.49305 -67.0071 5.16576 -25.8601 14.7158 0 2.4869e-014 46.2898 -4.7874 4.54815 19.0859 7.9936e-015 -3.55271e-015 -38.7028 2.68447 6.43209 2.68911 -0.270653 -0.785278 -50.5065 -1.42299 -7.49656 21.1083 -2.28882e-005 -7.62939e-006 -1.43398 2.62386 -1.69892 27.642 -7.62939e-006 1.52588e-005 -2.53839 0.09099 -1.10687 7.59942 -1.43241 -1.77799e-005 -4.8069 0.359133 0.116581 3.64919 -0.00226212 2.498e-016 26.9867 -0.043347 -0.0807153 3.32334 -0.00289917 3.05311e-016 -2.07223 -0.368671 0.266225 4.63256 -0.573471 -9.31575e-010 4.72098 0.394633 0.48113 1.05391 2.23562 -9.29139e-010 -83.925 0.01297 -179.973 
